<mxfile host="app.diagrams.net" modified="2024-04-29T21:24:27.511Z" agent="Mozilla/5.0 (X11; Linux x86_64; rv:125.0) Gecko/20100101 Firefox/125.0" version="24.3.1" etag="2jpheNbl8aaki0jB6BI0" type="github">
  <diagram name="Page-1" id="Oq18xSwXzY9K0h1a4IiR">
    <mxGraphModel>
      <root>
        <mxCell id="0" />
        <mxCell id="1" parent="0" />
      </root>
    </mxGraphModel>
  </diagram>
</mxfile>
